<?xml version="1.0" encoding="UTF-8"?>
<svg id="Ebene_1" xmlns="http://www.w3.org/2000/svg" viewBox="0 0 1383.81 332.29">
  <defs>
    <style>
      .cls-1 {
        fill: #0a1e2d;
      }
    </style>
  </defs>
  <g>
    <path class="cls-1" d="M425.34,305.97h-16.96l-4.46,12.94h-6.5l16.19-45.01h6.63l16.19,45.01h-6.57l-4.53-12.94ZM416.87,280.08s-1.02,4.08-1.78,6.37l-5.04,14.28h13.64l-4.97-14.28c-.76-2.29-1.72-6.37-1.72-6.37h-.13Z"/>
    <path class="cls-1" d="M478.56,273.9h15.75c7.59,0,13.07,4.21,13.07,11.47,0,4.4-2.17,7.91-5.61,9.69v.13c4.72,1.4,7.39,5.86,7.39,10.9,0,8.48-6.57,12.81-14.47,12.81h-16.13v-45.01ZM494.31,292.83c4.08,0,6.63-2.87,6.63-6.82s-2.42-6.63-6.76-6.63h-9.31v13.45h9.43ZM495.01,313.42c4.84,0,7.71-3.06,7.71-7.65s-3.06-7.71-7.78-7.71h-10.07v15.36h10.14Z"/>
    <path class="cls-1" d="M527.26,286.65h5.99v5.61c0,1.34-.13,2.42-.13,2.42h.13c1.47-4.72,5.23-8.41,10.2-8.41.83,0,1.59.13,1.59.13v6.12s-.83-.19-1.78-.19c-3.95,0-7.59,2.81-9.05,7.59-.57,1.85-.77,3.83-.77,5.8v13.2h-6.18v-32.26Z"/>
    <path class="cls-1" d="M577.55,298.76h1.4v-.57c0-5.29-3-7.08-7.08-7.08-4.97,0-8.99,3.12-8.99,3.12l-2.55-4.53s4.65-3.83,12.05-3.83c8.16,0,12.75,4.46,12.75,12.62v20.4h-5.74v-3.06c0-1.47.13-2.55.13-2.55h-.13s-2.61,6.37-10.33,6.37c-5.55,0-10.96-3.38-10.96-9.82,0-10.65,14.02-11.09,19.44-11.09ZM570.42,314.7c5.23,0,8.61-5.48,8.61-10.26v-1.02h-1.59c-4.65,0-13.07.32-13.07,6.12,0,2.61,2.04,5.16,6.06,5.16Z"/>
    <path class="cls-1" d="M603.94,286.65h5.99v4.27c0,1.28-.13,2.36-.13,2.36h.13c1.27-2.81,5.1-7.39,12.11-7.39,7.59,0,11.09,4.14,11.09,12.37v20.65h-6.18v-19.25c0-4.53-.96-8.1-6.12-8.1s-8.86,3.25-10.2,7.9c-.38,1.27-.51,2.74-.51,4.34v15.11h-6.18v-32.26Z"/>
    <path class="cls-1" d="M664.43,285.89c7.46,0,9.94,5.1,9.94,5.1h.13s-.13-.96-.13-2.17v-14.92h6.18v45.01h-5.86v-3.06c0-1.27.06-2.17.06-2.17h-.13s-2.61,5.99-10.58,5.99c-8.73,0-14.22-6.88-14.22-16.89s6.06-16.89,14.6-16.89ZM665.26,314.32c4.78,0,9.31-3.38,9.31-11.6,0-5.74-3-11.47-9.12-11.47-5.1,0-9.31,4.21-9.31,11.54s3.76,11.54,9.12,11.54Z"/>
    <path class="cls-1" d="M740.8,285.89c9.63,0,17.4,7.08,17.4,16.83s-7.78,16.96-17.4,16.96-17.4-7.14-17.4-16.96,7.78-16.83,17.4-16.83ZM740.8,314.32c6.12,0,11.09-4.84,11.09-11.6s-4.97-11.47-11.09-11.47-11.09,4.78-11.09,11.47,5.04,11.6,11.09,11.6Z"/>
    <path class="cls-1" d="M776.62,292.07h-4.02v-4.97h4.02v-1.53c0-10.65,8.03-11.98,12.11-11.98,1.4,0,2.36.19,2.36.19v5.29s-.64-.13-1.59-.13c-2.36,0-6.76.76-6.76,6.76v1.4h7.65v4.97h-7.65v26.84h-6.12v-26.84Z"/>
    <path class="cls-1" d="M833.22,308.96s4.78,4.84,11.47,4.84c4.21,0,7.78-2.36,7.78-6.63,0-9.75-21.8-7.65-21.8-21.48,0-7.01,6.06-12.56,14.53-12.56s12.75,4.53,12.75,4.53l-2.87,5.23s-4.14-3.89-9.88-3.89c-4.78,0-8.16,3-8.16,6.57,0,9.31,21.8,6.82,21.8,21.42,0,6.95-5.35,12.69-14.28,12.69-9.56,0-14.92-5.93-14.92-5.93l3.57-4.78Z"/>
    <path class="cls-1" d="M891.16,285.89c8.1,0,12.11,4.72,12.11,4.72l-2.93,4.34s-3.44-3.7-8.92-3.7c-6.5,0-11.22,4.84-11.22,11.47s4.72,11.6,11.41,11.6c5.99,0,9.94-4.33,9.94-4.33l2.49,4.53s-4.46,5.16-12.88,5.16c-10.14,0-17.28-7.2-17.28-16.89s7.14-16.89,17.28-16.89Z"/>
    <path class="cls-1" d="M920.61,273.9h6.18v16.51c0,1.53-.13,2.68-.13,2.68h.13c1.4-3.12,5.48-7.2,11.92-7.2,7.59,0,11.09,4.14,11.09,12.37v20.65h-6.18v-19.25c0-4.53-.96-8.1-6.12-8.1-4.85,0-8.86,3.31-10.2,7.97-.38,1.27-.51,2.74-.51,4.27v15.11h-6.18v-45.01Z"/>
    <path class="cls-1" d="M964.84,286.65h6.57l6.69,22.63c.51,1.66.76,3.44.83,3.44h.13s.32-1.78.83-3.44l7.01-22.57h5.67l6.95,22.57c.51,1.66.89,3.44.89,3.44h.13s.25-1.78.76-3.44l6.76-22.63h6.5l-10.39,32.26h-6.82l-6.69-20.72c-.51-1.66-.89-3.51-.89-3.51h-.13s-.38,1.85-.89,3.51l-6.63,20.72h-6.88l-10.39-32.26Z"/>
    <path class="cls-1" d="M1046.88,298.76h1.4v-.57c0-5.29-3-7.08-7.08-7.08-4.97,0-8.99,3.12-8.99,3.12l-2.55-4.53s4.65-3.83,12.05-3.83c8.16,0,12.75,4.46,12.75,12.62v20.4h-5.74v-3.06c0-1.47.13-2.55.13-2.55h-.13s-2.61,6.37-10.33,6.37c-5.55,0-10.96-3.38-10.96-9.82,0-10.65,14.02-11.09,19.44-11.09ZM1039.74,314.7c5.23,0,8.61-5.48,8.61-10.26v-1.02h-1.59c-4.65,0-13.07.32-13.07,6.12,0,2.61,2.04,5.16,6.06,5.16Z"/>
    <path class="cls-1" d="M1073.27,286.65h5.99v5.61c0,1.34-.13,2.42-.13,2.42h.13c1.47-4.72,5.23-8.41,10.2-8.41.83,0,1.59.13,1.59.13v6.12s-.83-.19-1.78-.19c-3.95,0-7.59,2.81-9.05,7.59-.57,1.85-.77,3.83-.77,5.8v13.2h-6.18v-32.26Z"/>
    <path class="cls-1" d="M1104.37,315.34l16.26-20.4c1.4-1.72,2.68-3,2.68-3v-.13s-1.02.13-3.12.13h-15.11v-5.29h26.58v3.57l-16.26,20.46c-1.34,1.66-2.74,2.93-2.74,2.93v.13s1.08-.13,3.19-.13h16.38v5.29h-27.86v-3.57Z"/>
    <path class="cls-1" d="M1176.46,273.9h14.92c13.77,0,22.82,8.22,22.82,22.44s-9.05,22.57-22.82,22.57h-14.92v-45.01ZM1190.93,313.42c10.14,0,16.77-5.99,16.77-17.08s-6.69-16.96-16.77-16.96h-8.16v34.04h8.16Z"/>
    <path class="cls-1" d="M1231.85,273.9h6.25v6.31h-6.25v-6.31ZM1231.92,286.65h6.18v32.26h-6.18v-32.26Z"/>
    <path class="cls-1" d="M1269.08,326.94c5.61,0,10.2-2.49,10.2-9.05v-2.36c0-1.02.06-2.04.06-2.04h-.13c-1.91,3.19-4.91,5.04-9.56,5.04-8.99,0-14.41-7.2-14.41-16.51s5.16-16.13,14.09-16.13c7.78,0,10.14,4.78,10.14,4.78h.13s-.06-.45-.06-1.02v-3h5.93v30.92c0,10.65-8.1,14.73-16.26,14.73-3.89,0-7.91-1.08-11.03-2.68l2.04-4.84s4.02,2.17,8.86,2.17ZM1279.41,302.08c0-8.41-4.08-10.84-9.12-10.84-5.61,0-8.8,4.08-8.8,10.65s3.57,11.28,9.37,11.28c4.46,0,8.54-2.68,8.54-11.09Z"/>
    <path class="cls-1" d="M1304.65,273.9h6.25v6.31h-6.25v-6.31ZM1304.71,286.65h6.18v32.26h-6.18v-32.26Z"/>
    <path class="cls-1" d="M1331.48,292.07h-4.21v-4.97h4.4v-9.31h5.99v9.31h7.78v4.97h-7.78v14.34c0,6.44,4.53,7.27,6.88,7.27.89,0,1.47-.13,1.47-.13v5.48s-.89.13-2.17.13c-4.14,0-12.37-1.27-12.37-12.05v-15.04Z"/>
    <path class="cls-1" d="M1362.9,310.56s3.63,3.76,9.24,3.76c2.68,0,5.36-1.4,5.36-4.02,0-5.93-16.57-4.72-16.57-15.24,0-5.86,5.23-9.18,11.67-9.18,7.08,0,10.39,3.57,10.39,3.57l-2.49,4.65s-2.87-2.87-7.97-2.87c-2.68,0-5.29,1.15-5.29,3.95,0,5.8,16.57,4.53,16.57,15.11,0,5.35-4.59,9.37-11.67,9.37-7.9,0-12.24-4.72-12.24-4.72l3-4.4Z"/>
  </g>
  <polygon class="cls-1" points="538.07 80.22 586.4 80.22 586.4 202.66 609.25 202.66 609.25 80.22 657.39 80.22 657.39 58.7 538.07 58.7 538.07 80.22"/>
  <polygon class="cls-1" points="1096.96 58.7 1070.36 58.7 1032.94 122.22 1027.3 130.94 1032.91 139.32 1072.68 202.66 1099.67 202.66 1053.75 130.21 1096.96 58.7"/>
  <rect class="cls-1" x="1176.62" y="58.7" width="22.85" height="143.95"/>
  <path class="cls-1" d="M742.8,58.7l-52.83,143.95h24.28l16.46-46.09,3.77-11.32,17.96-48.73c.25-.7.52-1.47.8-2.31.28.84.54,1.61.8,2.3l38.21,106.15h24.26l-52.83-143.95h-20.89Z"/>
  <path class="cls-1" d="M451.06,119.63h0c-14.81-6.26-26.51-11.21-26.51-22.66,0-8.98,8.76-18.27,23.43-18.27s25.96,10.02,26.06,10.11l4.43,4.26,11.46-19.55-2.56-2.64c-.57-.59-14.34-14.46-39.38-14.46s-46.67,17.98-46.67,40.94c0,25.08,21.65,34.43,39.06,41.93,15.64,6.75,27.99,12.07,27.99,24.92,0,10.87-9.01,18.46-21.9,18.46-18.64,0-31.53-13.09-31.64-13.21l-3.88-4.08-13.71,17.73,2.63,3c.68.77,16.91,18.83,46.23,18.83,26.8,0,45.52-16.91,45.52-41.13,0-27.05-22.47-36.55-40.53-44.19ZM450.02,122.1h0s0,0,0,0Z"/>
  <polygon class="cls-1" points="1264.29 58.7 1264.29 80.22 1312.62 80.22 1312.62 202.66 1335.47 202.66 1335.47 80.22 1383.61 80.22 1383.61 58.7 1264.29 58.7"/>
  <polygon class="cls-1" points="79.6 0 51.83 130.14 121.26 130.14 136.2 60.13 297.04 60.13 309.86 0 79.6 0"/>
  <polygon class="cls-1" points="189.22 97.67 174.2 168.08 12.82 168.08 0 228.21 230.79 228.21 258.65 97.67 189.22 97.67"/>
  <path class="cls-1" d="M962.41,166.31c-.16.14-16.26,15.36-39.71,15.36-28.85,0-49.92-21.85-50.64-52.18.72-30.33,21.79-52.18,50.64-52.18,23.45,0,39.55,15.21,39.71,15.36l1.08,1.03,11.1-17.19-.67-.74c-.72-.79-18.06-19.37-52.02-19.37-40.82,0-71.75,31.29-72.62,73.09.87,41.8,31.8,73.09,72.62,73.09,33.96,0,51.3-18.58,52.02-19.37l.67-.74-11.1-17.19-1.08,1.03Z"/>
</svg>